<svg data-v-0dd9719b="" version="1.0" xmlns="http://www.w3.org/2000/svg" xmlns:xlink="http://www.w3.org/1999/xlink" width="100%" height="100%" viewBox="0 0 340.000000 250.000000" preserveAspectRatio="xMidYMid meet" color-interpolation-filters="sRGB" style="margin: auto;"> <rect data-v-0dd9719b="" x="0" y="0" width="100%" height="100%" fill="#ffffff" fill-opacity="1" class="background"></rect> <rect data-v-0dd9719b="" x="0" y="0" width="100%" height="100%" fill="url(#watermark)" fill-opacity="1" class="watermarklayer"></rect> <g data-v-0dd9719b="" fill="#fe795d" class="icon-text-wrapper icon-svg-group iconsvg" transform="translate(63.56500244140625,94.92119407681821)"><g class="iconsvg-imagesvg" transform="translate(0,0)"><g><rect fill="#fe795d" fill-opacity="0" stroke-width="2" x="0" y="0" width="60" height="60.1576129459183" class="image-rect"></rect> <svg filter="url(#colors7601987057)" x="0" y="0" width="60" height="60.1576129459183" filtersec="colorsf5550013508" class="image-svg-svg primary" style="overflow: visible;"><svg xmlns="http://www.w3.org/2000/svg" viewBox="0 -0.005661637522280216 99.73999786376953 100.00236511230469"><g fill="#333"><path d="M57.05 94.89a123.14 123.14 0 0 1-21 3.18 50 50 0 0 0 38.76-4.78c-2.81-.57-8.11-.71-17.76 1.6zM71.27 47.62c16.47-8.24 24.66-3.76 28.47.7a50.44 50.44 0 0 0-1.47-10.57c-4.87-4.41-14.39-7.46-32.62 1C36.12 52.4 12.91 71.23 0 55.08a49.65 49.65 0 0 0 2.22 10.33C14 80.26 47.85 59.32 71.27 47.62zM31.93 24.77c23.12-9.25 34.59-15.58 50.84-12.33A50 50 0 0 0 75 6.8c-6.1-.27-16.74-.21-25.47 2.72-11.38 3.82-33 14.14-35.44 5.52a50.33 50.33 0 0 0-7.2 9.34c1.66 3.38 7.18 7.53 25.04.39z"></path><path d="M37.55 42.37c36.72-19.69 46.16-20.64 57.81-12.92a49.62 49.62 0 0 0-6.19-10.23c-6.08-2.55-16.35-3.7-32.17 3.68C31.69 34.74 8.08 47.45 2.73 33.08A50 50 0 0 0 0 45.47c3.24 5.71 12.31 10.44 37.55-3.1zM35.3 8.66C49 5.23 53.93 2.84 66.88 3a50 50 0 0 0-45.31 5.73c1.98 1.27 5.92 1.88 13.73-.07zM44.48 70.84C26 80.48 13.84 78.91 7.33 76.4a49.55 49.55 0 0 0 6.78 8.6C30.26 89.7 59 73.88 76.14 67.47c12.31-4.62 17.13-.59 19 3.53a49.84 49.84 0 0 0 3.4-10c-4.62-14-27.8-3.87-54.06 9.84zM57.78 83.2C38.54 91.48 26.52 91.47 20 90.13a50.38 50.38 0 0 0 9.54 5.56c7.28-.45 18.73-1.72 28.29-5.27 12.52-4.66 22-7.7 24.34-2.29a50.54 50.54 0 0 0 7-7.35c-.77-5.51-7.23-7.97-31.39 2.42z"></path></g></svg></svg> <defs><filter id="colors7601987057"><feColorMatrix type="matrix" values="0 0 0 0 0.9921875  0 0 0 0 0.47265625  0 0 0 0 0.36328125  0 0 0 1 0" class="icon-fecolormatrix"></feColorMatrix></filter> <filter id="colorsf5550013508"><feColorMatrix type="matrix" values="0 0 0 0 0.99609375  0 0 0 0 0.99609375  0 0 0 0 0.99609375  0 0 0 1 0" class="icon-fecolormatrix"></feColorMatrix></filter> <filter id="colorsb1571318380"><feColorMatrix type="matrix" values="0 0 0 0 0  0 0 0 0 0  0 0 0 0 0  0 0 0 1 0" class="icon-fecolormatrix"></feColorMatrix></filter></defs></g></g> <g transform="translate(67,6.943805694580078)"><g data-gra="path-name" fill-rule="" class="tp-name iconsvg-namesvg"><g transform="scale(1)"><g><path d="M29.52-18.09L29.52-18.09 28.18-4 1.46-1.9Q1.65-12.98 1.89-23.93 2.13-34.88 2.48-45.96L2.48-45.96 18.98-45.96Q18.25-39.01 17.58-32.07 16.92-25.14 16.63-18.09L16.63-18.09Q18.12-18.03 19.58-18.03 21.04-18.03 22.53-18.03L22.53-18.03Q24.31-18.03 26.03-18.06 27.74-18.09 29.52-18.09ZM31.8-45.77L61.06-45.77Q60.87-42.78 60.72-39.86 60.56-36.94 60.3-33.96L60.3-33.96 46.85-33.26 46.53-29.26 55.99-29.26 55.29-19.42 45.77-19.11 45.45-14.47 53.32-14.47 58.91-14.47Q58.72-10.98 58.51-7.54 58.3-4.09 58.14-0.63L58.14-0.63 30.79 0 31.8-45.77ZM90.33-45L105.31-45.51 103.02-2.48 86.39-0.95 77.5-23.99 76.11-0.51 61.83-0.51 62.97-45.51 78.84-46.27 89.82-23.42 90.33-45ZM134.95-45.45L147.33-2.73 131.59-0.7 129.68-7.87 122.45-7.87 120.86-0.7 104.67-2.29 117.3-44.56 134.95-45.45ZM123.78-17.58L128.54-17.58 126.13-28.63 123.78-17.58Z" transform="translate(-1.4600000381469727, 46.27000045776367)"></path></g> <!----> <!----> <!----> <!----> <!----> <!----> <!----></g></g> <!----></g></g><defs v-gra="od"></defs></svg>